<svg width="32" height="32" viewBox="0 0 32 32" fill="none" xmlns="http://www.w3.org/2000/svg">
<g clip-path="url(#clip0_1297_1176)">
<path d="M19.9414 12.7987C19.4342 12.5052 18.8112 12.5032 18.304 12.7932L12.0687 16.3561C11.5581 16.6482 11.2422 17.1915 11.2422 17.7805V24.205C11.2422 25.1112 11.9768 25.8458 12.883 25.8458H19.1183C20.0245 25.8458 20.7591 25.1112 20.7591 24.205V14.2183C20.7584 13.6334 20.4466 13.0921 19.9414 12.7987Z" fill="#151515"/>
<path d="M8.78239 19.1755C8.27583 18.8794 7.65217 18.8787 7.14494 19.1701L0.827322 22.7806C0.181194 23.149 -0.136083 23.9068 0.0552365 24.6257C0.245875 25.3454 0.896768 25.8458 1.64094 25.8458H7.95924C8.86545 25.8458 9.60009 25.1112 9.60009 24.205V20.5937C9.60077 20.0102 9.28894 19.4683 8.78239 19.1755Z" fill="#151515"/>
<path d="M31.1827 6.37552C30.6761 6.08139 30.0525 6.08003 29.5452 6.37075L23.2276 9.98062C22.7163 10.2727 22.4004 10.8167 22.4004 11.4056V24.205C22.4004 25.1112 23.135 25.8458 24.0412 25.8458H30.3589C31.2651 25.8458 31.9997 25.1112 31.9997 24.205V7.79509C32.0004 7.21024 31.6886 6.66896 31.1827 6.37552Z" fill="#151515"/>
</g>
<defs>
<clipPath id="clip0_1297_1176">
<rect width="32" height="32" fill="white"/>
</clipPath>
</defs>
</svg>
