<svg width="32" height="32" viewBox="0 0 32 32" fill="none" xmlns="http://www.w3.org/2000/svg">
<g clip-path="url(#clip0_1297_1182)">
<path d="M19.9414 12.7986C19.4342 12.5052 18.8112 12.5031 18.304 12.7932L12.0687 16.3561C11.5581 16.6482 11.2422 17.1915 11.2422 17.7804V24.2049C11.2422 25.1111 11.9768 25.8458 12.883 25.8458H19.1183C20.0245 25.8458 20.7591 25.1111 20.7591 24.2049V14.2182C20.7584 13.6334 20.4466 13.0921 19.9414 12.7986Z" fill="#151515"/>
<path d="M8.78239 19.1755C8.27583 18.8793 7.65217 18.8786 7.14494 19.17L0.827322 22.7806C0.181194 23.1489 -0.136083 23.9067 0.0552365 24.6257C0.245875 25.3453 0.896768 25.8458 1.64094 25.8458H7.95924C8.86545 25.8458 9.60009 25.1111 9.60009 24.2049V20.5937C9.60077 20.0102 9.28894 19.4682 8.78239 19.1755Z" fill="#151515"/>
</g>
<defs>
<clipPath id="clip0_1297_1182">
<rect width="32" height="32" fill="white"/>
</clipPath>
</defs>
</svg>
