<svg width="25" height="24" viewBox="0 0 25 24" fill="none" xmlns="http://www.w3.org/2000/svg">
<g clip-path="url(#clip0_1476_556)">
<path d="M23.4524 12.41V14.7535C23.4644 15.1971 23.0047 15.5546 22.5788 15.4355L19.5594 14.6804V21.4222H18.1533V11.4366C18.1533 11.22 18.2532 11.0157 18.4238 10.8826C18.5944 10.7495 18.817 10.7021 19.027 10.7546L22.92 11.7281C23.2331 11.8064 23.4524 12.0876 23.4524 12.41Z" fill="#8066FF"/>
<path d="M16.9814 24C18.4051 24 19.5592 22.8459 19.5592 21.4222C19.5592 19.9985 18.4051 18.8443 16.9814 18.8443C15.5577 18.8443 14.4036 19.9985 14.4036 21.4222C14.4036 22.8459 15.5577 24 16.9814 24Z" fill="#9999FF"/>
<path d="M10.4364 15.9829L8.27153 15.4416C7.84398 15.3239 7.38757 15.6802 7.39788 16.1235V20.4854L8.7968 21.8053C8.7968 20.6122 8.80397 17.0239 8.80397 17.0239L10.0952 17.3468C10.1524 17.3614 10.2096 17.3679 10.2663 17.3679C10.5813 17.3679 10.8681 17.1547 10.9478 16.8355C11.042 16.4586 10.8128 16.0771 10.4364 15.9829Z" fill="#FFBB33"/>
<path d="M11.8259 0.918524L8.24645 0.02378C7.819 -0.0948006 7.36155 0.262347 7.37327 0.705735V9.01495L8.80223 10.6799L8.77936 3.94959L11.8259 4.71123L13.3157 3.07458L11.8259 0.918524Z" fill="#FF8066"/>
<path d="M6.21281 13.2692C7.64283 13.2692 8.80208 12.11 8.80208 10.6799C8.80208 9.24993 7.64283 8.09067 6.21281 8.09067C4.78279 8.09067 3.62354 9.24993 3.62354 10.6799C3.62354 12.11 4.78279 13.2692 6.21281 13.2692Z" fill="#FF4D4D"/>
<path d="M14.8722 11.1004L16.2898 12.5547L16.2783 2.58055C16.2783 2.25809 16.0585 1.97687 15.7454 1.8986L11.8257 0.918549V4.71125L14.8722 5.47288V11.1004Z" fill="#FF4D4D"/>
<path d="M13.7006 15.144C15.1306 15.144 16.2899 13.9847 16.2899 12.5547C16.2899 11.1247 15.1306 9.96545 13.7006 9.96545C12.2706 9.96545 11.1113 11.1247 11.1113 12.5547C11.1113 13.9847 12.2706 15.144 13.7006 15.144Z" fill="#CC295F"/>
<path d="M6.60215 24C7.81423 24 8.79683 23.0174 8.79683 21.8053C8.79683 20.5932 7.81423 19.6107 6.60215 19.6107C5.39006 19.6107 4.40747 20.5932 4.40747 21.8053C4.40747 23.0174 5.39006 24 6.60215 24Z" fill="#FF9933"/>
<path d="M3.77979 17.3281C3.79019 17.3245 3.80064 17.3206 3.81096 17.3165C4.17152 17.1724 4.347 16.7633 4.20293 16.4028C4.1787 16.3421 3.59273 14.9122 2.17998 14.5605C1.80324 14.4667 1.42172 14.6961 1.32789 15.0728C1.23405 15.4496 1.46344 15.8311 1.84022 15.9249C2.53905 16.0989 2.89395 16.9163 2.89718 16.9245C3.03718 17.2747 3.42714 17.4503 3.77979 17.3281Z" fill="#FFBB33"/>
<path d="M3.77974 2.78861C3.79014 2.78501 3.8006 2.78111 3.81091 2.77699C4.17148 2.63291 4.34696 2.22383 4.20288 1.86326C4.17865 1.80257 3.59268 0.372758 2.17998 0.0210004C1.80324 -0.0728329 1.42172 0.156595 1.32789 0.533334C1.23405 0.91012 1.46344 1.29159 1.84022 1.38543C2.53905 1.55941 2.89395 2.37682 2.89718 2.38502C3.03714 2.73523 3.42709 2.91085 3.77974 2.78861Z" fill="#FFBB33"/>
<path d="M19.0973 7.00691C19.0869 7.0033 19.0764 6.99941 19.0661 6.99528C18.7056 6.8512 18.5301 6.44213 18.6742 6.08156C18.6984 6.02086 19.2844 4.59105 20.6971 4.23929C21.0738 4.14546 21.4554 4.37489 21.5492 4.75163C21.643 5.12841 21.4137 5.50989 21.0369 5.60372C20.338 5.7777 19.9831 6.59511 19.9799 6.60331C19.8399 6.95352 19.4499 7.12914 19.0973 7.00691Z" fill="#FF9933"/>
<path d="M2.47648 6.33502C2.86477 6.33502 3.17953 6.02025 3.17953 5.63197C3.17953 5.24369 2.86477 4.92892 2.47648 4.92892C2.0882 4.92892 1.77344 5.24369 1.77344 5.63197C1.77344 6.02025 2.0882 6.33502 2.47648 6.33502Z" fill="#FF8066"/>
<path d="M18.8561 1.40878C19.2444 1.40878 19.5592 1.09401 19.5592 0.705732C19.5592 0.31745 19.2444 0.00268555 18.8561 0.00268555C18.4678 0.00268555 18.1531 0.31745 18.1531 0.705732C18.1531 1.09401 18.4678 1.40878 18.8561 1.40878Z" fill="#FF4D4D"/>
<path d="M22.9897 9.43493C23.3779 9.43493 23.6927 9.12017 23.6927 8.73189C23.6927 8.3436 23.3779 8.02884 22.9897 8.02884C22.6014 8.02884 22.2866 8.3436 22.2866 8.73189C22.2866 9.12017 22.6014 9.43493 22.9897 9.43493Z" fill="#FF4D4D"/>
<path d="M11.8258 20.2504C12.2141 20.2504 12.5289 19.9357 12.5289 19.5474C12.5289 19.1591 12.2141 18.8443 11.8258 18.8443C11.4376 18.8443 11.1228 19.1591 11.1228 19.5474C11.1228 19.9357 11.4376 20.2504 11.8258 20.2504Z" fill="#FF8066"/>
</g>
<defs>
<clipPath id="clip0_1476_556">
<rect width="24" height="24" fill="white" transform="translate(0.5)"/>
</clipPath>
</defs>
</svg>
