<svg width="24" height="24" viewBox="0 0 24 24" fill="none" xmlns="http://www.w3.org/2000/svg">
<g clip-path="url(#clip0_1476_577)">
<path d="M12 24C18.6274 24 24 18.6274 24 12C24 5.37258 18.6274 0 12 0C5.37258 0 0 5.37258 0 12C0 18.6274 5.37258 24 12 24Z" fill="url(#paint0_linear_1476_577)"/>
<path d="M12 24C18.6274 24 24 18.6274 24 12C24 5.37258 18.6274 0 12 0C5.37258 0 0 5.37258 0 12C0 18.6274 5.37258 24 12 24Z" fill="url(#paint1_radial_1476_577)"/>
<path d="M4.13135 12.251C4.13861 14.3664 4.19997 16.4819 4.31538 18.5973C4.53878 18.6883 4.77808 18.7419 5.02582 18.7494C5.81477 18.7733 6.50782 18.3138 6.80168 17.5821C7.26096 16.4358 7.74096 15.2829 8.23258 14.1256C8.34405 13.8632 8.60257 13.694 8.88968 13.6949C7.30511 13.2104 5.71741 12.726 4.13135 12.251Z" fill="url(#paint2_linear_1476_577)"/>
<path d="M18.3982 8.79788C18.4628 12.0781 18.4224 15.3583 18.2771 18.6385C18.4941 18.7176 18.7294 18.7567 18.9742 18.7494C20.0639 18.7149 21.0107 17.7934 21.0638 16.7029C21.1856 14.0806 21.2092 11.4583 21.1346 8.83599C20.2224 8.82104 19.3103 8.80834 18.3982 8.79788Z" fill="url(#paint3_linear_1476_577)"/>
<path d="M9.83821 11.2844C9.83722 12.1244 9.83854 12.9645 9.8421 13.8045C9.84388 14.2018 10.1674 14.5253 10.5638 14.5263C11.0425 14.5274 11.5213 14.528 12 14.528C12 13.4465 12 12.3651 12 11.2837C11.2794 11.2837 10.5588 11.2839 9.83821 11.2844Z" fill="url(#paint4_linear_1476_577)"/>
<path d="M11.2794 11.2837C11.2791 12.1248 11.2795 12.9659 11.2807 13.807C11.2814 14.205 11.6035 14.5279 12 14.528C12.4787 14.528 12.9575 14.5274 13.4362 14.5263C13.8326 14.5253 14.1561 14.202 14.1579 13.8045C14.1615 12.9645 14.1628 12.1245 14.1618 11.2844C13.201 11.2837 12.2402 11.2835 11.2794 11.2837Z" fill="url(#paint5_linear_1476_577)"/>
<path d="M19.64 16.7382C19.7485 13.9467 19.7645 11.1552 19.6881 8.36362C14.0851 8.27465 8.48215 8.28294 2.87923 8.38851C2.78853 11.16 2.80756 13.9314 2.93628 16.7029C2.97607 17.547 3.55442 18.2869 4.31543 18.5974C4.79637 18.4256 5.18609 18.0541 5.38428 17.553C5.83395 16.4151 6.3072 15.2689 6.79498 14.117C6.90551 13.8559 7.1637 13.6875 7.45076 13.6889C10.0039 13.7016 12.5571 13.7036 15.1102 13.6949C15.3973 13.694 15.6559 13.8635 15.7673 14.1256C16.2589 15.2829 16.7389 16.4358 17.1982 17.5821C17.4006 18.0866 17.7942 18.4625 18.277 18.6385C19.0351 18.331 19.6063 17.5884 19.64 16.7382Z" fill="url(#paint6_linear_1476_577)"/>
<path d="M14.8757 11.4048C12.9586 11.4034 11.0415 11.4034 9.12427 11.4048C9.12577 10.1665 9.13378 8.92831 9.14841 7.69006C11.0495 7.6768 12.9505 7.6768 14.8515 7.69006C14.8662 8.92831 14.8742 10.1665 14.8757 11.4048Z" fill="url(#paint7_linear_1476_577)"/>
<path d="M14.8628 8.76857C12.9543 8.75877 11.0459 8.75877 9.13745 8.76857C9.14476 7.92974 9.15508 7.09096 9.16844 6.25213C11.0562 6.23427 12.944 6.23427 14.8317 6.25213C14.8451 7.09091 14.8555 7.92974 14.8628 8.76857Z" fill="url(#paint8_linear_1476_577)"/>
<path d="M2.86561 8.83595C2.80275 10.9627 4.60374 12.705 6.789 12.718C8.97567 12.7265 10.749 10.9516 10.7566 8.76263C10.7558 6.57413 9.03839 4.80324 6.91406 4.8527C4.79114 4.90585 2.93414 6.70946 2.86561 8.83595Z" fill="url(#paint9_linear_1476_577)"/>
<path d="M2.86561 8.83595C2.80275 10.9627 4.60374 12.705 6.789 12.718C8.97567 12.7265 10.749 10.9516 10.7566 8.76263C10.7558 6.57413 9.03839 4.80324 6.91406 4.8527C4.79114 4.90585 2.93414 6.70946 2.86561 8.83595Z" fill="url(#paint10_linear_1476_577)"/>
<path d="M13.2434 8.76262C13.251 10.9516 15.0243 12.7265 17.211 12.718C19.3963 12.7048 21.1973 10.9629 21.1344 8.83593C21.0658 6.70959 19.2089 4.90588 17.0859 4.85263C14.9616 4.80318 13.2442 6.57403 13.2434 8.76262Z" fill="url(#paint11_linear_1476_577)"/>
<path d="M14.5586 8.76708C14.5692 10.2249 15.753 11.4068 17.2126 11.4071C18.6717 11.4061 19.8554 10.246 19.8193 8.81597C19.7816 7.3861 18.5606 6.19144 17.1293 6.1636C15.6974 6.13683 14.5508 7.30946 14.5586 8.76708Z" fill="url(#paint12_linear_1476_577)"/>
<path d="M15.2759 8.7708C15.2859 9.8297 16.1485 10.6892 17.2097 10.6921C18.2707 10.6944 19.1257 9.85061 19.1019 8.80633C19.0776 7.76223 18.1953 6.89584 17.1491 6.87855C16.1025 6.86153 15.2671 7.71217 15.2759 8.7708Z" fill="url(#paint13_linear_1476_577)"/>
<path d="M17.5639 9.97913C16.5035 9.97365 15.6393 9.11316 15.6258 8.0551C15.6235 7.89075 15.6419 7.73119 15.6783 7.57922C15.423 7.90416 15.2715 8.31863 15.276 8.77079C15.286 9.82969 16.1486 10.6892 17.2098 10.6921C18.1054 10.6944 18.8549 10.0919 19.0516 9.27694C18.7085 9.70702 18.1706 9.9826 17.5639 9.97913Z" fill="url(#paint14_linear_1476_577)"/>
<path d="M6.03163 6.53574C5.98302 8.04103 5.95513 9.54642 5.948 11.0517C5.94734 11.1829 6.05464 11.2892 6.18725 11.289C6.58756 11.2883 6.98792 11.2876 7.38824 11.287C7.52094 11.2868 7.62866 11.1797 7.62913 11.0477C7.63424 9.53466 7.65439 8.02163 7.6895 6.5086C7.69255 6.3765 7.58924 6.27122 7.45864 6.27319C7.06442 6.27914 6.6702 6.28589 6.27599 6.29344C6.14544 6.29592 6.03589 6.40444 6.03163 6.53574Z" fill="url(#paint15_linear_1476_577)"/>
<path d="M9.32719 8.16831C9.3233 8.56787 9.32002 8.96739 9.31739 9.36695C9.31655 9.49918 9.20855 9.60704 9.07627 9.60756C8.59697 9.60939 8.11768 9.61159 7.63838 9.61436C7.36149 9.33723 7.08563 9.06081 6.81104 8.78533C7.09444 8.50468 7.37771 8.22348 7.6606 7.942C8.13746 7.93726 8.61432 7.93328 9.09113 7.93009C9.2228 7.92911 9.32846 8.03589 9.32719 8.16831Z" fill="url(#paint16_linear_1476_577)"/>
<path d="M6.81111 8.78532C6.5277 9.06601 6.2442 9.34613 5.96089 9.62565C5.4816 9.62935 5.0023 9.63357 4.523 9.63821C4.39058 9.63948 4.28511 9.53471 4.28764 9.40449C4.29519 9.01107 4.30456 8.61756 4.31577 8.22413C4.31952 8.09373 4.42944 7.98615 4.56111 7.9839C5.03797 7.97579 5.51483 7.96839 5.99169 7.96182C6.26333 8.23529 6.53656 8.50984 6.81111 8.78532Z" fill="url(#paint17_linear_1476_577)"/>
</g>
<defs>
<linearGradient id="paint0_linear_1476_577" x1="3.51473" y1="20.4853" x2="20.4853" y2="3.51469" gradientUnits="userSpaceOnUse">
<stop stop-color="#364AFF"/>
<stop offset="1" stop-color="#FC54FF"/>
</linearGradient>
<radialGradient id="paint1_radial_1476_577" cx="0" cy="0" r="1" gradientUnits="userSpaceOnUse" gradientTransform="translate(11.8574 10.2412) scale(13.9409)">
<stop offset="0.095" stop-color="#8D00DB" stop-opacity="0.66"/>
<stop offset="0.2822" stop-color="#9F0DE1" stop-opacity="0.523"/>
<stop offset="0.6541" stop-color="#CC30F0" stop-opacity="0.252"/>
<stop offset="1" stop-color="#FC54FF" stop-opacity="0"/>
</radialGradient>
<linearGradient id="paint2_linear_1476_577" x1="-2.29409" y1="22.7859" x2="22.1886" y2="-1.69682" gradientUnits="userSpaceOnUse">
<stop stop-color="#FC54FF"/>
<stop offset="0.4062" stop-color="#FD9BFF"/>
<stop offset="1" stop-color="white"/>
</linearGradient>
<linearGradient id="paint3_linear_1476_577" x1="4.48971" y1="28.3733" x2="31.6718" y2="1.19123" gradientUnits="userSpaceOnUse">
<stop stop-color="#FC54FF"/>
<stop offset="0.4062" stop-color="#FD9BFF"/>
<stop offset="1" stop-color="white"/>
</linearGradient>
<linearGradient id="paint4_linear_1476_577" x1="5.3705" y1="18.4548" x2="15.9344" y2="7.89088" gradientUnits="userSpaceOnUse">
<stop stop-color="#364AFF"/>
<stop offset="1" stop-color="#FC54FF"/>
</linearGradient>
<linearGradient id="paint5_linear_1476_577" x1="5.76822" y1="19.643" x2="14.8161" y2="10.5951" gradientUnits="userSpaceOnUse">
<stop stop-color="#364AFF"/>
<stop offset="1" stop-color="#FC54FF"/>
</linearGradient>
<linearGradient id="paint6_linear_1476_577" x1="0.0887624" y1="24.1247" x2="33.4805" y2="-9.26701" gradientUnits="userSpaceOnUse">
<stop stop-color="#FC54FF"/>
<stop offset="0.4062" stop-color="#FD9BFF"/>
<stop offset="1" stop-color="white"/>
</linearGradient>
<linearGradient id="paint7_linear_1476_577" x1="7.79456" y1="13.7649" x2="19.7549" y2="1.80463" gradientUnits="userSpaceOnUse">
<stop stop-color="#FC54FF"/>
<stop offset="0.4062" stop-color="#FD9BFF"/>
<stop offset="1" stop-color="white"/>
</linearGradient>
<linearGradient id="paint8_linear_1476_577" x1="8.58484" y1="10.9411" x2="18.9854" y2="0.540508" gradientUnits="userSpaceOnUse">
<stop stop-color="#FC54FF"/>
<stop offset="0.4062" stop-color="#FD9BFF"/>
<stop offset="1" stop-color="white"/>
</linearGradient>
<linearGradient id="paint9_linear_1476_577" x1="2.13567" y1="13.5345" x2="11.4718" y2="4.19832" gradientUnits="userSpaceOnUse">
<stop stop-color="#FC54FF"/>
<stop offset="1" stop-color="#FDA0FF"/>
</linearGradient>
<linearGradient id="paint10_linear_1476_577" x1="-7.84823" y1="23.5184" x2="11.5602" y2="4.10991" gradientUnits="userSpaceOnUse">
<stop stop-color="#FC54FF"/>
<stop offset="0.4062" stop-color="#FD9BFF"/>
<stop offset="1" stop-color="white"/>
</linearGradient>
<linearGradient id="paint11_linear_1476_577" x1="3.79102" y1="22.1699" x2="20.7664" y2="5.19454" gradientUnits="userSpaceOnUse">
<stop stop-color="#FC54FF"/>
<stop offset="0.4062" stop-color="#FD9BFF"/>
<stop offset="1" stop-color="white"/>
</linearGradient>
<linearGradient id="paint12_linear_1476_577" x1="11.063" y1="14.9054" x2="23.7586" y2="2.20983" gradientUnits="userSpaceOnUse">
<stop stop-color="#FC54FF"/>
<stop offset="0.4062" stop-color="#FD9BFF"/>
<stop offset="1" stop-color="white"/>
</linearGradient>
<linearGradient id="paint13_linear_1476_577" x1="11.4448" y1="14.5263" x2="20.6837" y2="5.28747" gradientUnits="userSpaceOnUse">
<stop stop-color="#364AFF"/>
<stop offset="1" stop-color="#FC54FF"/>
</linearGradient>
<linearGradient id="paint14_linear_1476_577" x1="14.5023" y1="11.4786" x2="20.1393" y2="5.84157" gradientUnits="userSpaceOnUse">
<stop stop-color="#364AFF"/>
<stop offset="1" stop-color="#FC54FF"/>
</linearGradient>
<linearGradient id="paint15_linear_1476_577" x1="3.86263" y1="11.7613" x2="9.16813" y2="6.45577" gradientUnits="userSpaceOnUse">
<stop stop-color="#364AFF"/>
<stop offset="1" stop-color="#FC54FF"/>
</linearGradient>
<linearGradient id="paint16_linear_1476_577" x1="5.75391" y1="11.4357" x2="11.2357" y2="5.95389" gradientUnits="userSpaceOnUse">
<stop stop-color="#364AFF"/>
<stop offset="1" stop-color="#FC54FF"/>
</linearGradient>
<linearGradient id="paint17_linear_1476_577" x1="1.79221" y1="12.2292" x2="7.65158" y2="6.36985" gradientUnits="userSpaceOnUse">
<stop stop-color="#364AFF"/>
<stop offset="1" stop-color="#FC54FF"/>
</linearGradient>
<clipPath id="clip0_1476_577">
<rect width="24" height="24" fill="white"/>
</clipPath>
</defs>
</svg>
